# xmcd
#
# Track frame offsets: 
#        150
#        7567
#        22066
#        32310
#        45198
#        63816
#        70703
#        89946
#        107478
#        122649
#        139171
#        156602
#        180857
#        194684
#        218358
#        232517
#        245973
#
# Disc length: 3470 seconds
#
# Revision: 0
# Processed by: cddbd v1.5.2PL0 Copyright (c) Steve Scherf et al.
# Submitted via: ExactAudioCopyFreeDBPlugin 1.0
#
DISCID=d30d8c11
DTITLE=Annâweech - môr sott...
DYEAR=2011
DGENRE=Blues
TTITLE0='s Land wie'd Leit
TTITLE1=Bock uff Rock
TTITLE2=Schwôôba
TTITLE3=Dreizeh 'Sultaninâ
TTITLE4=Friehêr un heit
TTITLE5=Ortschaftâ
TTITLE6=Dâ Amor hat'n Knick im Blick
TTITLE7=Môr sott
TTITLE8=Schenkâ
TTITLE9=Liebe, Triebe,...
TTITLE10=Mou un Maadle
TTITLE11=Schdrohhalm
TTITLE12=Machs net!
TTITLE13=Tretminâ
TTITLE14=lewwêrfressâ
TTITLE15=Nix fer uhguât
TTITLE16=Waale nach Male
EXTD=
EXTT0=
EXTT1=
EXTT2=
EXTT3=
EXTT4=
EXTT5=
EXTT6=
EXTT7=
EXTT8=
EXTT9=
EXTT10=
EXTT11=
EXTT12=
EXTT13=
EXTT14=
EXTT15=
EXTT16=
PLAYORDER=
